# xmcd CD database file
#
# Track frame offsets:
#	150
#	12121
#	23301
#	34672
#	45743
#	58506
#	73573
#	85761
#	95865
#	107033
#	119175
#	132793
#	149673
#	161625
#	173661
#
# Disc length: 2544 seconds
#
# Revision: 5
# Processed by: cddbd v1.5.2PL0 Copyright (c) Steve Scherf et al.
# Submitted via: CDex 1.94
#
DISCID=c809ee0f
DTITLE=Singers and Songwriters - Country USA [CD1]
DYEAR=2004
DGENRE=Country
TTITLE0=Johnny Cash - Ring Of Fire
TTITLE1=Marty Robbins - Singing The Blues
TTITLE2=Willie Nelson - On The Road Again
TTITLE3=Roger Miller - King Of The Road
TTITLE4=Jerry Reed - East Bound And Down
TTITLE5=Waylon Jennings - Luckenback, Texas
TTITLE6=Tammy Wynette - Stand By Your Man
TTITLE7=Charlie Pride - Is Anybody Going To San Antone
TTITLE8=George Jones - She's My Rock
TTITLE9=Dolly Parton - Jolene
TTITLE10=Loretta Lynn - Coal Miner's Daughter
TTITLE11=Conway Twitty - Don't Take It Away
TTITLE12=Billie Jo Spears - Misty Blue
TTITLE13=Oak Ridge Boys - Elvira
TTITLE14=CW McCall - Convoy
EXTD=YEAR: 2004
EXTT0=
EXTT1=
EXTT2=
EXTT3=
EXTT4=
EXTT5=
EXTT6=
EXTT7=
EXTT8=
EXTT9=
EXTT10=
EXTT11=
EXTT12=
EXTT13=
EXTT14=
PLAYORDER=
